<?xml version="1.0" standalone="no"?>
<!DOCTYPE svg PUBLIC "-//W3C//DTD SVG 20010904//EN"
 "http://www.w3.org/TR/2001/REC-SVG-20010904/DTD/svg10.dtd">
<svg version="1.0" xmlns="http://www.w3.org/2000/svg"
 width="195.200000pt" height="195.200000pt" viewBox="0 0 195.200000 195.200000"
 preserveAspectRatio="xMidYMid meet">
<metadata>
Created by potrace 1.13, written by Peter Selinger 2001-2015
</metadata>
<g transform="translate(0.000000,195.200000) scale(0.080000,-0.080000)"
fill="#000000" stroke="none">
<path d="M0 1585 l0 -855 21 0 c19 0 19 -1 5 -22 -27 -38 -18 -44 17 -11 57
56 130 82 252 90 89 5 107 4 100 -7 -6 -10 -4 -12 7 -8 9 4 37 9 64 13 27 4
79 22 116 41 86 44 156 59 180 37 22 -20 23 -37 3 -29 -9 3 -15 0 -15 -9 0 -8
-7 -15 -16 -15 -10 0 -14 -5 -10 -16 3 -9 2 -12 -5 -8 -14 8 -54 -36 -51 -57
2 -10 -2 -20 -8 -24 -6 -3 -10 3 -10 15 0 12 -4 19 -9 16 -5 -3 -7 -28 -6 -56
2 -27 -1 -47 -6 -44 -5 3 -9 -5 -9 -18 l-1 -23 -17 21 c-9 12 -23 30 -29 40
-11 17 -12 15 -7 -11 5 -26 4 -28 -8 -14 -11 14 -15 14 -26 3 -10 -11 -10 -19
-1 -36 11 -22 11 -22 -6 -8 -10 8 -21 13 -24 11 -3 -2 -10 5 -16 15 -5 11 -20
30 -33 42 -18 18 -26 20 -43 11 -16 -8 -24 -7 -37 4 -17 15 -67 14 -127 -2
-16 -4 -41 -7 -55 -6 -15 1 -30 -6 -39 -17 -10 -15 -23 -19 -54 -16 -33 2 -43
-1 -45 -15 -5 -24 -18 -21 -27 6 -6 19 -8 20 -12 4 -3 -10 1 -25 8 -33 10 -12
9 -13 -5 -8 -14 6 -16 -10 -16 -162 0 -165 6 -199 32 -199 7 0 13 -7 13 -15 0
-10 -8 -14 -22 -13 -27 3 -29 -4 -7 -28 12 -13 17 -40 18 -93 l1 -76 51 0 51
0 6 80 c10 124 26 135 27 18 l0 -98 121 0 120 0 -2 105 c-2 72 2 110 10 118
21 21 31 -12 31 -109 0 -56 4 -94 12 -102 16 -16 115 -16 121 1 4 9 6 9 6 0 1
-10 146 -13 691 -13 l690 0 0 89 c0 50 4 92 9 95 12 8 22 -50 22 -124 l1 -60
53 0 53 0 1 77 c1 61 6 82 20 96 18 18 19 17 26 -67 4 -47 4 -90 0 -96 -4 -7
41 -10 138 -10 l145 0 0 270 1 269 -36 7 c-20 4 -65 1 -102 -5 -40 -8 -131
-11 -231 -9 l-165 3 34 19 c19 10 47 32 64 50 17 18 27 24 24 13 -5 -14 -2
-16 18 -13 36 7 31 -1 -12 -19 -47 -20 -40 -24 24 -16 29 4 49 3 46 -2 -3 -4
12 -5 34 -2 28 5 34 4 23 -4 -8 -6 -10 -11 -4 -11 6 0 17 7 24 15 7 8 18 15
24 15 6 0 4 -5 -4 -10 -13 -9 -13 -10 0 -9 8 0 24 4 35 8 11 5 25 4 32 -1 21
-17 83 0 92 25 5 13 5 23 -1 26 -5 2 -14 14 -19 28 -6 17 -16 24 -32 23 -42
-4 -57 0 -57 15 0 8 -4 15 -10 15 -5 0 -10 -4 -10 -8 0 -5 -10 -8 -22 -6 -13
1 -31 3 -40 3 -10 1 -18 7 -18 15 0 33 -155 -2 -164 -38 -3 -11 -1 -23 5 -27
6 -3 4 -11 -6 -19 -13 -11 -14 -10 -9 5 6 15 4 16 -14 6 -21 -11 -33 1 -13 13
12 8 7 54 -8 69 -8 8 -11 8 -11 -2 0 -20 -52 26 -69 62 -12 24 -17 27 -19 14
-3 -16 -6 -15 -28 5 -13 13 -24 28 -24 33 0 6 -9 16 -20 23 -19 12 -20 11 -15
-15 5 -27 5 -27 -12 5 -15 29 -20 32 -47 26 -17 -3 -42 -13 -56 -22 -17 -10
-12 -1 18 31 23 26 42 50 43 54 0 5 2 18 3 30 3 27 -22 40 -31 16 -5 -14 -8
-12 -15 7 -7 18 -11 20 -23 10 -12 -10 -15 -9 -15 4 0 11 -4 14 -12 9 -19 -11
-38 -12 -38 -2 0 5 4 9 8 9 4 0 8 9 8 20 0 24 -5 25 -20 5 -14 -19 -11 111 4
190 9 49 13 112 11 170 -1 24 -6 17 -26 -39 -28 -79 -43 -104 -82 -141 -33
-30 -54 -34 -28 -4 12 13 18 32 17 54 -2 18 2 36 8 40 5 3 10 11 10 17 0 6 -6
6 -16 -2 -13 -11 -16 -10 -21 8 -3 12 -9 19 -14 16 -5 -3 -9 1 -10 8 0 7 -4 4
-8 -7 -7 -16 -9 -13 -15 18 -4 20 -12 37 -19 37 -14 0 -49 58 -42 70 3 4 -2
13 -10 20 -12 10 -15 9 -15 -5 0 -14 -3 -15 -15 -5 -8 6 -19 9 -25 5 -6 -4
-10 4 -10 18 0 25 -16 37 -50 37 -22 0 -93 -31 -98 -43 -2 -4 -7 -5 -12 -2 -5
3 -11 -4 -15 -14 -4 -12 -12 -18 -21 -14 -9 3 -14 -2 -14 -17 0 -12 -4 -18
-10 -15 -7 4 -8 -3 -4 -22 5 -22 4 -26 -6 -16 -14 13 -43 6 -34 -8 3 -5 0 -9
-7 -9 -7 0 -9 -10 -7 -25 5 -22 3 -23 -10 -13 -13 11 -14 10 -4 -9 23 -42 32
-73 22 -73 -6 0 -10 9 -10 19 0 11 -4 23 -10 26 -10 6 -14 -7 -10 -35 1 -10
-3 -9 -14 5 -14 19 -15 18 -11 -14 4 -35 25 -68 25 -40 0 12 2 12 10 -1 32
-50 -35 -15 -87 45 -31 36 -33 37 -24 12 6 -16 23 -44 37 -63 33 -43 21 -44
-25 -1 -23 21 -32 26 -27 14 3 -11 9 -31 13 -45 3 -15 12 -36 19 -47 8 -11 14
-28 14 -37 0 -10 4 -27 10 -38 6 -11 15 -29 21 -41 7 -15 7 -19 0 -14 -19 11
-12 -8 11 -33 24 -26 24 -26 -29 -5 -16 6 -17 5 -3 -12 14 -17 13 -18 -2 -12
-15 5 -16 1 -12 -26 3 -18 7 -38 10 -44 2 -7 -8 -16 -21 -19 l-25 -6 23 -19
c38 -32 -9 -24 -64 12 -57 36 -192 176 -186 192 2 7 -5 19 -15 29 -12 10 -15
19 -8 23 7 4 7 12 0 26 -13 24 -21 99 -12 113 4 6 7 24 8 41 1 16 7 31 13 33
6 2 11 8 11 12 0 5 14 31 30 57 37 58 103 119 147 135 26 10 35 22 53 71 28
75 92 142 175 182 50 25 75 30 154 33 192 8 320 -64 377 -213 13 -35 24 -47
50 -55 19 -7 34 -18 34 -26 0 -8 9 -14 20 -14 11 0 20 -7 20 -15 0 -9 11 -20
24 -26 13 -6 30 -22 37 -35 6 -13 20 -26 31 -30 10 -3 18 -11 18 -19 0 -7 7
-15 15 -19 8 -3 12 -12 9 -21 -4 -8 0 -23 7 -32 8 -9 13 -18 12 -20 -2 -1 -3
-4 -2 -5 1 -2 3 -14 5 -28 2 -14 6 -40 8 -58 3 -18 1 -32 -4 -32 -6 0 -10 -10
-10 -23 0 -13 -11 -47 -25 -76 -14 -28 -23 -56 -20 -61 3 -4 -5 -17 -18 -27
-44 -35 -41 -51 12 -62 46 -10 189 -83 203 -104 5 -8 14 -8 30 0 25 13 193 30
243 25 37 -3 150 -66 170 -95 14 -19 15 63 15 851 l0 872 -1220 0 -1220 0 0
-855z m635 -1064 c-7 -6 -54 39 -67 64 -6 11 8 2 31 -19 22 -22 38 -42 36 -45z
m19 55 c5 14 9 13 26 -9 25 -31 25 -38 3 -30 -16 6 -16 5 -4 -10 26 -32 5 -17
-34 25 -22 23 -30 35 -19 25 20 -16 22 -17 28 -1z m1541 -314 c-21 -38 -77
-78 -94 -67 -12 7 -3 35 11 35 17 0 77 74 78 95 1 18 2 18 13 -4 9 -19 7 -30
-8 -59z m-1681 8 c5 -5 16 -6 25 -3 14 4 14 3 1 -6 -42 -30 -150 7 -150 52 0
6 114 -33 124 -43z m73 -193 c-2 -23 -3 -2 -3 48 0 50 1 68 3 42 2 -26 2 -67
0 -90z"/>
</g>
</svg>
